HIERARCHY
ROOT joint_Root
{
  OFFSET 0 0 0
  CHANNELS 6 Xposition Yposition Zposition Zrotation Xrotation Yrotation
  JOINT Hips
  {
    OFFSET 0.847027 93.984 -452.225
    CHANNELS 6 Xposition Yposition Zposition Zrotation Xrotation Yrotation
    JOINT Spine
    {
      OFFSET 15.7357 0 0
      CHANNELS 6 Xposition Yposition Zposition Zrotation Xrotation Yrotation
      JOINT Chest
      {
        OFFSET 8.98455 -0.406207 0
        CHANNELS 6 Xposition Yposition Zposition Zrotation Xrotation Yrotation
        JOINT Neck
        {
          OFFSET 16.3773 0 0
          CHANNELS 6 Xposition Yposition Zposition Zrotation Xrotation Yrotation
          JOINT Head
          {
            OFFSET 6.45672 0 0
            CHANNELS 6 Xposition Yposition Zposition Zrotation Xrotation Yrotation
            End Site
            {
              OFFSET 0 0 0
            }
          }
        }
        JOINT Shoulder_L
        {
          OFFSET 12.9942 -0.242716 4.98039
          CHANNELS 6 Xposition Yposition Zposition Zrotation Xrotation Yrotation
          JOINT UpperArm_L
          {
            OFFSET 5.34809 0 0
            CHANNELS 6 Xposition Yposition Zposition Zrotation Xrotation Yrotation
            JOINT LowerArm_L
            {
              OFFSET 24.3286 1.87007e-05 0
              CHANNELS 6 Xposition Yposition Zposition Zrotation Xrotation Yrotation
              JOINT Hand_L
              {
                OFFSET 22.2916 0 0
                CHANNELS 6 Xposition Yposition Zposition Zrotation Xrotation Yrotation
                End Site
                {
                  OFFSET 0 0 0
                }
              }
            }
          }
        }
        JOINT Shoulder_R
        {
          OFFSET 12.9945 -0.242716 -4.98039
          CHANNELS 6 Xposition Yposition Zposition Zrotation Xrotation Yrotation
          JOINT UpperArm_R
          {
            OFFSET -5.34813 0 0
            CHANNELS 6 Xposition Yposition Zposition Zrotation Xrotation Yrotation
            JOINT LowerArm_R
            {
              OFFSET -24.3289 0.000322201 0
              CHANNELS 6 Xposition Yposition Zposition Zrotation Xrotation Yrotation
              JOINT Hand_R
              {
                OFFSET -22.2915 -0.000108084 0
                CHANNELS 6 Xposition Yposition Zposition Zrotation Xrotation Yrotation
                End Site
                {
                  OFFSET 0 0 0
                }
              }
            }
          }
        }
      }
    }
    JOINT UpperLeg_L
    {
      OFFSET -2.19248 -6.46944 0
      CHANNELS 6 Xposition Yposition Zposition Zrotation Xrotation Yrotation
      JOINT LowerLeg_L
      {
        OFFSET 39.0811 0 -1.23785e-05
        CHANNELS 6 Xposition Yposition Zposition Zrotation Xrotation Yrotation
        JOINT Foot_L
        {
          OFFSET 40.9854 0 -1.26872e-05
          CHANNELS 6 Xposition Yposition Zposition Zrotation Xrotation Yrotation
          JOINT Toes_L
          {
            OFFSET 11.7543 0 0
            CHANNELS 6 Xposition Yposition Zposition Zrotation Xrotation Yrotation
            End Site
            {
              OFFSET 0 0 0
            }
          }
        }
      }
    }
    JOINT UpperLeg_R
    {
      OFFSET -2.19251 6.46944 0
      CHANNELS 6 Xposition Yposition Zposition Zrotation Xrotation Yrotation
      JOINT LowerLeg_R
      {
        OFFSET -39.0811 -0.00228153 -0.0401928
        CHANNELS 6 Xposition Yposition Zposition Zrotation Xrotation Yrotation
        JOINT Foot_R
        {
          OFFSET -40.9854 0 0
          CHANNELS 6 Xposition Yposition Zposition Zrotation Xrotation Yrotation
          JOINT Toes_R
          {
            OFFSET -11.7543 0 0
            CHANNELS 6 Xposition Yposition Zposition Zrotation Xrotation Yrotation
            End Site
            {
              OFFSET 0 0 0
            }
          }
        }
      }
    }
  }
}
MOTION
Frames:	6
Frame Time:	0.0333333
0 0 0 0 0 -0 23.7158 90.8003 -56.2476 99.4229 -57.8898 7.26697 15.7357 5.1072e-06 -5.51765e-07 104.76 83.475 -103.009 8.98455 -0.406207 -4.3199e-07 4.81196 3.27334 3.36221 16.3773 -1.3905e-06 -6.99897e-07 0.12969 9.33577 4.3022 6.45672 -1.25837e-06 -1.02172e-07 -5.48501 16.7937 -0.0324069 12.9942 -0.242716 4.98039 -91.2963 4.07623 -87.3417 5.34809 -7.22636e-06 -6.2814e-07 -76.4258 9.41588 6.382 24.3286 1.87007e-05 4.90208e-06 0.454377 3.46476 -7.47131 22.2916 -9.88446e-07 4.63217e-06 11.0344 5.45245 -4.73206 12.9945 -0.242716 -4.98039 87.9632 11.2998 -94.7129 -5.34813 -1.25947e-06 -3.79883e-06 -51.6194 -4.88346 -4.59066 -24.3289 0.000322201 -8.65921e-06 1.73269 2.89235 -30.9527 -22.2915 -0.000108084 -4.47941e-06 9.76774 5.33394 -0.901368 -2.19248 -6.46944 -1.22533e-07 -169.196 4.56383 -22.851 39.0811 -6.73843e-06 -1.23785e-05 0.396903 -0.18041 64.817 40.9854 -6.48686e-06 -1.26872e-05 -5.31068 2.76775 -55.3691 11.7543 -2.30145e-07 3.05095e-06 0.132353 -0.219738 -20.4324 -2.19251 6.46944 -1.45247e-06 172.263 32.0412 165.5 -39.0811 -0.00228153 -0.0401928 0.119911 -0.142652 35.6839 -40.9854 7.72618e-06 5.99936e-06 -1.88233 -6.46368 -69.1626 -11.7543 -5.6619e-06 -5.58687e-06 -1.24705 -1.40185 -16.9817 
0 0 0 0 0 -0 21.3326 91.5595 -56.2628 100.186 -57.9231 7.5904 15.7357 5.1072e-06 -5.51765e-07 108.676 83.5387 -107.408 8.98455 -0.406207 -4.3199e-07 4.44132 4.09427 2.37621 16.3773 -1.3905e-06 -6.99897e-07 -0.210252 9.36173 4.31045 6.45672 -1.25837e-06 -1.02172e-07 -6.10573 16.0566 -0.47474 12.9942 -0.242716 4.98039 -91.1474 3.49838 -86.829 5.34809 -7.22636e-06 -6.2814e-07 -76.1221 4.45474 9.50868 24.3286 1.87007e-05 4.90208e-06 0.189171 2.9949 -3.60517 22.2916 -9.88446e-07 4.63217e-06 11.9273 5.42473 -3.76215 12.9945 -0.242716 -4.98039 88.2384 10.3557 -95.2915 -5.34813 -1.25947e-06 -3.79883e-06 -50.3041 -4.8614 -7.58662 -24.3289 0.000322201 -8.65921e-06 2.25966 3.40393 -33.6174 -22.2915 -0.000108084 -4.47941e-06 10.1503 5.32808 -0.729481 -2.19248 -6.46944 -1.22534e-07 -171.253 4.10305 -25.9286 39.0811 -6.73843e-06 -1.23785e-05 0.346168 -0.169682 63.3769 40.9854 -6.48686e-06 -1.26872e-05 -6.97552 5.19815 -56.0476 11.7543 -2.30145e-07 3.05095e-06 0.127615 -0.211299 -20.287 -2.19251 6.46944 -1.45247e-06 172.195 31.3174 168.955 -39.0811 -0.00228153 -0.0401928 0.0878644 -0.115493 31.4125 -40.9854 7.72618e-06 5.99936e-06 -1.84225 -7.29142 -68.8005 -11.7543 -5.6619e-06 -5.58687e-06 -1.19067 -1.34755 -17.0342 
0 0 0 0 0 -0 19.1205 92.0707 -56.2989 100.774 -57.8484 7.26696 15.7357 5.1072e-06 -5.51765e-07 112.757 83.6761 -111.963 8.98455 -0.406207 -4.3199e-07 3.87565 4.85854 1.42213 16.3773 -1.3905e-06 -6.99897e-07 -0.62933 9.36126 4.1151 6.45672 -1.25837e-06 -1.02172e-07 -6.80533 15.4044 -0.890205 12.9942 -0.242716 4.98039 -91.024 3.04541 -86.4042 5.34809 -7.22636e-06 -6.2814e-07 -74.8984 0.842576 12.0243 24.3286 1.87007e-05 4.90208e-06 0.0206034 2.25223 -0.518829 22.2916 -9.88446e-07 4.63217e-06 14.0168 5.40426 -3.08435 12.9945 -0.242716 -4.98039 88.4695 9.55238 -95.8538 -5.34813 -1.25947e-06 -3.79883e-06 -48.7036 -5.35858 -10.0844 -24.3289 0.000322201 -8.65921e-06 2.44686 3.37669 -35.9709 -22.2915 -0.000108084 -4.47941e-06 10.2595 5.32551 -0.655004 -2.19248 -6.46944 -1.22534e-07 -173.405 3.54489 -29.0359 39.0811 -6.73843e-06 -1.23785e-05 0.268548 -0.152636 60.0551 40.9854 -6.48686e-06 -1.26872e-05 -8.17566 6.12897 -56.9237 11.7543 -2.30145e-07 3.05095e-06 0.131202 -0.217671 -20.3968 -2.19251 6.46944 -1.45247e-06 172.622 29.9956 171.47 -39.0811 -0.00228153 -0.0401928 0.0652585 -0.0927049 27.5209 -40.9854 7.72618e-06 5.99936e-06 -1.87304 -8.82564 -68.6287 -11.7543 -5.6619e-06 -5.58687e-06 -1.05315 -1.19836 -17.0394 
0 0 0 0 0 -0 16.9716 92.3001 -56.2872 101.011 -57.8453 6.38915 15.7357 5.1072e-06 -5.51765e-07 116.514 83.835 -116.147 8.98455 -0.406207 -4.3199e-07 3.2627 5.4837 0.576039 16.3773 -1.3905e-06 -6.99897e-07 -1.22635 9.37366 3.89681 6.45672 -1.25837e-06 -1.02172e-07 -7.36153 14.8837 -1.37655 12.9942 -0.242716 4.98039 -90.9716 2.82498 -86.0118 5.34809 -7.22636e-06 -6.2814e-07 -73.2774 -1.36409 14.1782 24.3286 1.87007e-05 4.90208e-06 -0.138952 1.807 0.0129559 22.2916 -9.88446e-07 4.63217e-06 16.3366 5.41968 -2.69028 12.9945 -0.242716 -4.98039 88.6603 8.96119 -96.4617 -5.34813 -1.25947e-06 -3.79883e-06 -46.9552 -6.12264 -12.3265 -24.3289 0.000322201 -8.65921e-06 2.71644 3.50716 -37.8121 -22.2915 -0.000108084 -4.47941e-06 10.3837 5.32452 -0.626861 -2.19248 -6.46944 -1.22534e-07 -175.48 2.8381 -31.7047 39.0811 -6.73843e-06 -1.23785e-05 0.18145 -0.126828 54.8282 40.9854 -6.48686e-06 -1.26872e-05 -9.07414 6.4066 -57.8232 11.7543 -2.30145e-07 3.05095e-06 0.130711 -0.216826 -20.3821 -2.19251 6.46944 -1.45247e-06 173.392 28.4268 173.329 -39.0811 -0.00228153 -0.0401928 0.0495339 -0.0734017 24.2575 -40.9854 7.72618e-06 5.99936e-06 -2.1378 -10.5498 -68.8591 -11.7543 -5.6619e-06 -5.58687e-06 -0.951952 -1.06926 -16.9166 
0 0 0 0 0 -0 14.8115 92.2301 -56.2022 100.906 -57.8653 5.15346 15.7357 5.1072e-06 -5.51765e-07 119.832 83.9735 -119.829 8.98455 -0.406207 -4.3199e-07 2.70306 5.99033 -0.137137 16.3773 -1.3905e-06 -6.99897e-07 -1.88629 9.40289 3.68717 6.45672 -1.25837e-06 -1.02172e-07 -7.96949 14.5295 -2.0226 12.9942 -0.242716 4.98039 -90.9713 2.80091 -85.8665 5.34809 -7.22636e-06 -6.2814e-07 -71.5511 -3.10301 16.1336 24.3286 1.87007e-05 4.90208e-06 -0.202014 2.09614 0.0188334 22.2916 -9.88446e-07 4.63217e-06 17.9859 5.42346 -2.38826 12.9945 -0.242716 -4.98039 88.799 8.49494 -96.9223 -5.34813 -1.25947e-06 -3.79883e-06 -45.2738 -6.92689 -14.1886 -24.3289 0.000322201 -8.65921e-06 2.98564 3.63676 -39.4367 -22.2915 -0.000108084 -4.47941e-06 10.8034 5.31795 -0.436386 -2.19248 -6.46944 -1.22534e-07 -177.495 2.06424 -33.526 39.0811 -6.73843e-06 -1.23785e-05 0.099463 -0.089099 47.6755 40.9854 -6.48686e-06 -1.26872e-05 -9.76836 6.78833 -58.4263 11.7543 -2.30145e-07 3.05095e-06 0.128387 -0.212698 -20.3114 -2.19251 6.46944 -1.45247e-06 174.267 27.4311 174.741 -39.0811 -0.00228153 -0.0401928 0.0419615 -0.0640529 21.9187 -40.9854 7.72618e-06 5.99936e-06 -2.31734 -11.7036 -69.722 -11.7543 -5.6619e-06 -5.58687e-06 -0.726657 -0.797046 -16.7388 
0 0 0 0 0 -0 12.5308 91.865 -56.0348 100.245 -58.1838 3.55282 15.7357 5.1072e-06 -5.51765e-07 122.658 84.0547 -122.942 8.98455 -0.406207 -4.3199e-07 2.27437 6.42517 -0.696898 16.3773 -1.3905e-06 -6.99897e-07 -2.58892 9.54551 3.57248 6.45672 -1.25837e-06 -1.02172e-07 -8.7469 14.4879 -2.65174 12.9942 -0.242716 4.98039 -90.9775 2.78689 -85.6627 5.34809 -7.22636e-06 -6.2814e-07 -70.2867 -3.77715 17.6925 24.3286 1.87007e-05 4.90208e-06 -0.165344 1.89056 0.0154606 22.2916 -9.88446e-07 4.63217e-06 18.5598 5.41623 -2.41345 12.9945 -0.242716 -4.98039 88.9234 8.04885 -97.3556 -5.34813 -1.25947e-06 -3.79883e-06 -44.3579 -8.0388 -15.7609 -24.3289 0.000322201 -8.65921e-06 3.33536 3.87083 -40.8072 -22.2915 -0.000108084 -4.47941e-06 11.3287 5.30597 -0.0957421 -2.19248 -6.46944 -1.22534e-07 -179.162 1.09664 -34.389 39.0811 -6.73843e-06 -1.23785e-05 0.0377722 -0.0467267 38.9609 40.9854 -6.48686e-06 -1.26872e-05 -11.3922 7.82284 -57.7455 11.7543 -2.30145e-07 3.05095e-06 0.13067 -0.216701 -20.3797 -2.19251 6.46944 -1.45247e-06 175.285 26.9417 175.911 -39.0811 -0.00228153 -0.0401928 0.0396355 -0.0612447 20.58 -40.9854 7.72618e-06 5.99936e-06 -2.42988 -12.0285 -71.2232 -11.7543 -5.6619e-06 -5.58687e-06 -0.400155 -0.420211 -16.5779 
